<!DOCTYPE svg PUBLIC "-//W3C//DTD SVG 20010904//EN" "http://www.w3.org/TR/2001/REC-SVG-20010904/DTD/svg10.dtd">
<svg version="1.0" xmlns="http://www.w3.org/2000/svg" width="1000px" height="800px" viewBox="0 0 10000 8000" preserveAspectRatio="xMidYMid meet">
<g id="layer101" fill="#0c0c0c" stroke="none">
 <path fill="#e3f2fd" d="M2376 7233 c-15 -361 -18 -844 -7 -1028 23 -391 75 -702 144 -867 16 -37 16 -38 -6 -38 -54 0 -253 -22 -367 -41 -419 -69 -824 -219 -1140 -424 -131 -85 -199 -140 -308 -247 -151 -149 -243 -283 -311 -454 -218 -546 25 -1140 689 -1689 118 -98 195 -147 335 -217 272 -136 450 -193 1285 -408 463 -119 653 -178 920 -283 316 -124 577 -279 795 -472 263 -232 475 -348 747 -407 134 -29 386 -31 523 -5 117 23 266 69 385 119 477 200 980 649 1410 1258 209 295 356 399 958 676 525 242 739 377 921 580 302 338 429 841 320 1261 -25 97 -95 245 -153 327 -55 77 -169 189 -244 240 -196 133 -710 311 -1142 395 -241 47 -557 81 -757 81 -62 0 -113 2 -113 4 0 2 7 62 14 133 20 175 35 437 47 828 5 182 14 436 18 565 5 129 8 236 7 238 -2 1 -75 -32 -162 -74 -710 -339 -1352 -505 -2059 -533 -826 -32 -1578 121 -2330 474 -76 36 -397 165 -410 165 -1 0 -5 -71 -9 -157z m4691 -340 c-4 -21 -7 -127 -7 -236 -1 -185 -3 -199 -22 -217 -29 -27 -276 -152 -393 -198 -447 -178 -1005 -272 -1605 -272 -757 0 -1573 149 -2212 402 -67 26 -77 33 -73 52 2 11 11 82 20 156 9 74 18 136 19 137 1 2 47 -13 102 -33 706 -253 1472 -354 2224 -293 610 49 1266 223 1810 478 69 32 129 59 134 60 5 1 6 -16 3 -36z m-21 -664 c-3 -111 -13 -278 -21 -372 -17 -195 -14 -188 -149 -315 -464 -432 -1430 -578 -2736 -411 -438 55 -1014 174 -1280 262 l-95 32 -12 60 c-22 104 -33 333 -26 523 3 105 10 182 16 182 5 0 66 -18 136 -41 394 -126 800 -204 1366 -261 176 -17 875 -17 1050 0 499 51 900 143 1267 290 97 39 332 158 418 211 36 22 67 40 69 41 2 0 1 -91 -3 -201z m581 -904 c343 -35 653 -104 995 -221 345 -119 495 -198 607 -320 68 -74 139 -209 166 -314 25 -99 30 -277 11 -386 -58 -332 -228 -598 -496 -776 -127 -84 -324 -184 -610 -311 -246 -109 -388 -175 -473 -224 -33 -18 -61 -32 -63 -31 -5 5 134 308 209 457 155 305 287 508 427 655 80 85 82 88 35 55 -79 -54 -291 -272 -393 -404 -170 -219 -416 -604 -592 -925 -35 -63 -86 -142 -115 -175 -28 -33 -104 -131 -169 -219 -427 -573 -885 -954 -1334 -1110 -143 -50 -253 -68 -402 -68 -201 1 -382 58 -559 177 -80 53 -314 260 -317 280 -7 50 -311 381 -499 545 -386 336 -834 596 -1328 770 -126 45 -382 121 -403 119 -5 0 42 -20 104 -45 400 -156 789 -391 1127 -680 124 -105 332 -311 305 -301 -8 3 -76 30 -150 60 -260 104 -482 174 -1025 322 -822 224 -1067 318 -1287 494 -362 289 -594 621 -629 901 -26 210 48 390 240 581 272 271 693 457 1219 540 139 21 494 38 477 22 -5 -5 -53 -44 -106 -86 -125 -100 -327 -309 -411 -427 -83 -117 -159 -268 -193 -386 -30 -101 -43 -272 -29 -370 l8 -59 7 95 c8 129 32 216 89 335 143 298 454 563 935 796 196 95 355 158 540 214 l119 36 121 -20 c66 -11 190 -30 275 -42 173 -24 296 -62 570 -176 452 -188 882 -418 1305 -698 332 -219 534 -377 754 -590 196 -190 305 -342 348 -485 25 -86 31 -59 7 33 -83 323 -544 824 -1229 1337 -205 154 -439 314 -614 419 l-129 78 187 7 c302 11 506 31 730 72 165 31 500 -23 866 -139 107 -34 183 -61 631 -221 424 -151 579 -189 784 -190 142 -1 227 17 323 66 52 26 41 33 -14 9 -108 -48 -255 -49 -429 -4 -162 42 -339 119 -775 337 -231 116 -491 240 -577 275 l-156 65 96 54 c106 60 180 109 257 171 l50 41 220 0 c121 0 284 -7 362 -15z"/>
 </g>

</svg>